<?xml version="1.0" encoding="UTF-8" standalone="no"?>
<!DOCTYPE svg PUBLIC "-//W3C//DTD SVG 1.1//EN" "http://www.w3.org/Graphics/SVG/1.1/DTD/svg11.dtd">
<svg width="100%" height="100%" viewBox="0 0 1024 1024" version="1.1" xmlns="http://www.w3.org/2000/svg" xmlns:xlink="http://www.w3.org/1999/xlink" xml:space="preserve" xmlns:serif="http://www.serif.com/" style="fill-rule:evenodd;clip-rule:evenodd;stroke-linejoin:round;stroke-miterlimit:2;">
    <path id="Speaker" d="M353.8,522L280,522C266.745,522 256,511.255 256,498L256,408C256,401.635 258.529,395.53 263.029,391.029C267.53,386.529 273.635,384 280,384L351.52,384L428.406,316.556C431.357,313.968 435.55,313.345 439.127,314.965C442.703,316.585 445,320.148 445,324.074L445,579.926C445,583.852 442.703,587.415 439.127,589.035C435.55,590.655 431.357,590.032 428.406,587.444L353.8,522ZM684.291,285.086C681.881,282.246 680.838,278.492 681.439,274.816C682.041,271.141 684.225,267.914 687.414,265.99C687.678,265.802 687.953,265.636 688.225,265.472C692.868,262.671 698.855,263.634 702.385,267.75C744.549,317.455 770,381.779 770,452C770,521.864 744.807,585.89 703.018,635.482C699.138,640.036 692.532,641.11 687.41,638.02C687.402,638.031 687.401,638.031 687.401,638.031C684.206,636.103 682.018,632.87 681.416,629.188C680.813,625.505 681.858,621.744 684.273,618.899C722.177,573.739 745,515.514 745,452C745,388.486 722.177,330.261 684.291,285.086ZM608.215,313.735C612.771,310.986 618.636,311.857 622.197,315.811C654.411,352.043 674,399.752 674,452C674,503.904 654.669,551.329 622.819,587.46C618.92,591.829 612.463,592.803 607.449,589.779L607.437,589.796C604.195,587.84 601.989,584.545 601.416,580.802C600.842,577.059 601.961,573.255 604.469,570.419C632.203,538.781 649,497.337 649,452C649,406.663 632.203,365.219 604.497,333.556C601.997,330.728 600.882,326.935 601.453,323.204C602.025,319.472 604.225,316.187 607.457,314.237C607.699,314.046 607.958,313.89 608.215,313.735ZM528.079,362.074C532.575,359.362 538.356,360.171 541.935,364.013C563.216,387.188 576.231,418.086 576.231,452C576.231,485.564 563.484,516.174 542.571,539.248C538.663,543.511 532.292,544.427 527.34,541.441C527.322,541.469 527.321,541.469 527.32,541.468C524.06,539.502 521.846,536.184 521.28,532.418C520.715,528.653 521.857,524.831 524.397,521.994C541.095,503.446 551.231,478.897 551.231,452C551.231,425.103 541.095,400.554 524.439,381.968C521.911,379.144 520.774,375.339 521.336,371.59C521.899,367.841 524.104,364.539 527.35,362.58C527.576,362.378 527.829,362.225 528.079,362.074Z" style="fill:#737474;"/>
</svg>
