<?xml version="1.0" encoding="UTF-8" standalone="no"?>
<!DOCTYPE svg PUBLIC "-//W3C//DTD SVG 1.1//EN" "http://www.w3.org/Graphics/SVG/1.1/DTD/svg11.dtd">
<svg width="100%" height="100%" viewBox="0 0 1024 1024" version="1.1" xmlns="http://www.w3.org/2000/svg" xmlns:xlink="http://www.w3.org/1999/xlink" xml:space="preserve" xmlns:serif="http://www.serif.com/" style="fill-rule:evenodd;clip-rule:evenodd;stroke-linejoin:round;stroke-miterlimit:2;">
    <path id="Pips" d="M174,886L174,918L130,918L130,886L174,886ZM222,886L222,918L178,918L178,886L222,886ZM270,886L270,918L226,918L226,886L270,886ZM318,886L318,918L274,918L274,886L318,886ZM366,886L366,918L322,918L322,886L366,886ZM414,886L414,918L370,918L370,886L414,886ZM462,886L462,918L418,918L418,886L462,886ZM510,886L510,918L466,918L466,886L510,886ZM558,886L558,918L514,918L514,886L558,886ZM606,886L606,918L562,918L562,886L606,886Z" style="fill:#f2f3f3;"/>
</svg>
